<?xml version="1.0" encoding="UTF-8" standalone="no"?>
<!-- Created with Inkscape (http://www.inkscape.org/) -->

<svg
   width="297mm"
   height="210mm"
   viewBox="0 0 297 210"
   version="1.1"
   id="svg1"
   inkscape:version="1.4.2 (ebf0e940d0, 2025-05-08)"
   sodipodi:docname="dataset_structure.svg"
   inkscape:export-filename="cmd_cd.png"
   inkscape:export-xdpi="96"
   inkscape:export-ydpi="96"
   xmlns:inkscape="http://www.inkscape.org/namespaces/inkscape"
   xmlns:sodipodi="http://sodipodi.sourceforge.net/DTD/sodipodi-0.dtd"
   xmlns="http://www.w3.org/2000/svg"
   xmlns:svg="http://www.w3.org/2000/svg">
  <sodipodi:namedview
     id="namedview1"
     pagecolor="#ffffff"
     bordercolor="#000000"
     borderopacity="0.25"
     inkscape:showpageshadow="2"
     inkscape:pageopacity="0.0"
     inkscape:pagecheckerboard="0"
     inkscape:deskcolor="#d1d1d1"
     inkscape:document-units="mm"
     inkscape:zoom="0.76"
     inkscape:cx="426.97368"
     inkscape:cy="334.86842"
     inkscape:window-width="1536"
     inkscape:window-height="792"
     inkscape:window-x="0"
     inkscape:window-y="0"
     inkscape:window-maximized="1"
     inkscape:current-layer="layer1" />
  <defs
     id="defs1" />
  <g
     inkscape:label="Layer 1"
     inkscape:groupmode="layer"
     id="layer1">
    <g
       id="SVGRepo_bgCarrier"
       stroke-width="0"
       transform="matrix(0.26458333,0,0,0.26458333,29.301196,26.430187)" />
    <g
       id="SVGRepo_tracerCarrier"
       stroke-linecap="round"
       stroke-linejoin="round"
       transform="matrix(0.26458333,0,0,0.26458333,29.301196,26.430187)" />
    <g
       id="g3-3-3"
       transform="matrix(0.28907193,0,0,0.28907193,139.90555,1.5138243)">
      <path
         style="fill:#efce4a"
         d="M 46.324,52.5 H 1.565 c -1.03,0 -1.779,-0.978 -1.51,-1.973 L 10.221,22.656 C 10.405,21.974 11.024,21.5 11.731,21.5 H 56.49 c 1.03,0 1.51,0.984 1.51,1.973 L 47.834,51.344 C 47.65,52.026 47.031,52.5 46.324,52.5 Z"
         id="path1-5-6" />
      <g
         id="g2-6-0">
        <path
           style="fill:#ebba16"
           d="M 50.268,12.5 H 25 l -5,-7 H 1.732 C 0.776,5.5 0,6.275 0,7.232 V 49.96 c 0.069,0.002 0.138,0.006 0.205,0.01 L 10.22,22.656 C 10.404,21.973 11.023,21.5 11.73,21.5 H 52 V 14.232 C 52,13.275 51.224,12.5 50.268,12.5 Z"
           id="path2-2-6" />
      </g>
    </g>
    <g
       id="g3-3-3-2"
       transform="matrix(0.28907193,0,0,0.28907193,80.555469,48.51218)">
      <path
         style="fill:#efce4a"
         d="M 46.324,52.5 H 1.565 c -1.03,0 -1.779,-0.978 -1.51,-1.973 L 10.221,22.656 C 10.405,21.974 11.024,21.5 11.731,21.5 H 56.49 c 1.03,0 1.51,0.984 1.51,1.973 L 47.834,51.344 C 47.65,52.026 47.031,52.5 46.324,52.5 Z"
         id="path1-5-6-0" />
      <g
         id="g2-6-0-2">
        <path
           style="fill:#ebba16"
           d="M 50.268,12.5 H 25 l -5,-7 H 1.732 C 0.776,5.5 0,6.275 0,7.232 V 49.96 c 0.069,0.002 0.138,0.006 0.205,0.01 L 10.22,22.656 C 10.404,21.973 11.023,21.5 11.73,21.5 H 52 V 14.232 C 52,13.275 51.224,12.5 50.268,12.5 Z"
           id="path2-2-6-3" />
      </g>
    </g>
    <text
       xml:space="preserve"
       style="font-size:8.46666px;font-family:Carlito;-inkscape-font-specification:Carlito;text-align:start;writing-mode:lr-tb;direction:ltr;text-anchor:start;fill:none;stroke-width:0.881592"
       x="107.69785"
       y="25.894976"
       id="text3-9-2"><tspan
         sodipodi:role="line"
         id="tspan3-1-6"
         style="fill:#000000;fill-opacity:1;stroke-width:0.881592"
         x="107.69785"
         y="25.894976">/home/jd01/chest_xray</tspan></text>
    <text
       xml:space="preserve"
       style="font-size:8.46666px;font-family:Carlito;-inkscape-font-specification:Carlito;text-align:start;writing-mode:lr-tb;direction:ltr;text-anchor:start;fill:none;stroke-width:0.881592"
       x="79.355446"
       y="73.513458"
       id="text3-9-2-2"><tspan
         sodipodi:role="line"
         id="tspan3-1-6-8"
         style="fill:#000000;fill-opacity:1;stroke-width:0.881592"
         x="79.355446"
         y="73.513458">train</tspan></text>
    <g
       id="g3-3-3-2-8"
       transform="matrix(0.28907193,0,0,0.28907193,195.0258,49.070849)">
      <path
         style="fill:#efce4a"
         d="M 46.324,52.5 H 1.565 c -1.03,0 -1.779,-0.978 -1.51,-1.973 L 10.221,22.656 C 10.405,21.974 11.024,21.5 11.731,21.5 H 56.49 c 1.03,0 1.51,0.984 1.51,1.973 L 47.834,51.344 C 47.65,52.026 47.031,52.5 46.324,52.5 Z"
         id="path1-5-6-0-9" />
      <g
         id="g2-6-0-2-73">
        <path
           style="fill:#ebba16"
           d="M 50.268,12.5 H 25 l -5,-7 H 1.732 C 0.776,5.5 0,6.275 0,7.232 V 49.96 c 0.069,0.002 0.138,0.006 0.205,0.01 L 10.22,22.656 C 10.404,21.973 11.023,21.5 11.73,21.5 H 52 V 14.232 C 52,13.275 51.224,12.5 50.268,12.5 Z"
           id="path2-2-6-3-6" />
      </g>
    </g>
    <text
       xml:space="preserve"
       style="font-size:8.46666px;font-family:Carlito;-inkscape-font-specification:Carlito;text-align:start;writing-mode:lr-tb;direction:ltr;text-anchor:start;fill:none;stroke-width:0.881592"
       x="195.86356"
       y="74.072128"
       id="text3-9-2-2-1"
       inkscape:transform-center-x="3.1332237"
       inkscape:transform-center-y="-0.69627193"><tspan
         sodipodi:role="line"
         id="tspan3-1-6-8-2"
         style="fill:#000000;fill-opacity:1;stroke-width:0.881592"
         x="195.86356"
         y="74.072128">test</tspan></text>
    <g
       id="g3-3-3-2-1"
       transform="matrix(0.28907193,0,0,0.28907193,113.68786,95.28625)">
      <path
         style="fill:#efce4a"
         d="M 46.324,52.5 H 1.565 c -1.03,0 -1.779,-0.978 -1.51,-1.973 L 10.221,22.656 C 10.405,21.974 11.024,21.5 11.731,21.5 H 56.49 c 1.03,0 1.51,0.984 1.51,1.973 L 47.834,51.344 C 47.65,52.026 47.031,52.5 46.324,52.5 Z"
         id="path1-5-6-0-2" />
      <g
         id="g2-6-0-2-7">
        <path
           style="fill:#ebba16"
           d="M 50.268,12.5 H 25 l -5,-7 H 1.732 C 0.776,5.5 0,6.275 0,7.232 V 49.96 c 0.069,0.002 0.138,0.006 0.205,0.01 L 10.22,22.656 C 10.404,21.973 11.023,21.5 11.73,21.5 H 52 V 14.232 C 52,13.275 51.224,12.5 50.268,12.5 Z"
           id="path2-2-6-3-0" />
      </g>
    </g>
    <text
       xml:space="preserve"
       style="font-size:8.46666px;font-family:Carlito;-inkscape-font-specification:Carlito;text-align:start;writing-mode:lr-tb;direction:ltr;text-anchor:start;fill:none;stroke-width:0.881592"
       x="100.44847"
       y="119.24312"
       id="text3-9-2-2-9"><tspan
         sodipodi:role="line"
         id="tspan3-1-6-8-3"
         style="fill:#000000;fill-opacity:1;stroke-width:0.881592"
         x="100.44847"
         y="119.24312">PNEUMONIA</tspan></text>
    <g
       id="g3-3-3-2-1-4"
       transform="matrix(0.28907193,0,0,0.28907193,232.06507,95.289379)">
      <path
         style="fill:#efce4a"
         d="M 46.324,52.5 H 1.565 c -1.03,0 -1.779,-0.978 -1.51,-1.973 L 10.221,22.656 C 10.405,21.974 11.024,21.5 11.731,21.5 H 56.49 c 1.03,0 1.51,0.984 1.51,1.973 L 47.834,51.344 C 47.65,52.026 47.031,52.5 46.324,52.5 Z"
         id="path1-5-6-0-2-78" />
      <g
         id="g2-6-0-2-7-4">
        <path
           style="fill:#ebba16"
           d="M 50.268,12.5 H 25 l -5,-7 H 1.732 C 0.776,5.5 0,6.275 0,7.232 V 49.96 c 0.069,0.002 0.138,0.006 0.205,0.01 L 10.22,22.656 C 10.404,21.973 11.023,21.5 11.73,21.5 H 52 V 14.232 C 52,13.275 51.224,12.5 50.268,12.5 Z"
           id="path2-2-6-3-0-5" />
      </g>
    </g>
    <text
       xml:space="preserve"
       style="font-size:8.46666px;font-family:Carlito;-inkscape-font-specification:Carlito;text-align:start;writing-mode:lr-tb;direction:ltr;text-anchor:start;fill:none;stroke-width:0.881592"
       x="217.78493"
       y="119.59437"
       id="text3-9-2-2-9-03"><tspan
         sodipodi:role="line"
         id="tspan3-1-6-8-3-6"
         style="fill:#000000;fill-opacity:1;stroke-width:0.881592"
         x="217.78493"
         y="119.59437">PNEUMONIA</tspan></text>
    <g
       id="g3-3-3-2-1-8"
       transform="matrix(0.28907193,0,0,0.28907193,44.229252,93.127808)">
      <path
         style="fill:#efce4a"
         d="M 46.324,52.5 H 1.565 c -1.03,0 -1.779,-0.978 -1.51,-1.973 L 10.221,22.656 C 10.405,21.974 11.024,21.5 11.731,21.5 H 56.49 c 1.03,0 1.51,0.984 1.51,1.973 L 47.834,51.344 C 47.65,52.026 47.031,52.5 46.324,52.5 Z"
         id="path1-5-6-0-2-7" />
      <g
         id="g2-6-0-2-7-9">
        <path
           style="fill:#ebba16"
           d="M 50.268,12.5 H 25 l -5,-7 H 1.732 C 0.776,5.5 0,6.275 0,7.232 V 49.96 c 0.069,0.002 0.138,0.006 0.205,0.01 L 10.22,22.656 C 10.404,21.973 11.023,21.5 11.73,21.5 H 52 V 14.232 C 52,13.275 51.224,12.5 50.268,12.5 Z"
           id="path2-2-6-3-0-2" />
      </g>
    </g>
    <text
       xml:space="preserve"
       style="font-size:8.46666px;font-family:Carlito;-inkscape-font-specification:Carlito;text-align:start;writing-mode:lr-tb;direction:ltr;text-anchor:start;fill:none;stroke-width:0.881592"
       x="38.255035"
       y="119.1735"
       id="text3-9-2-2-9-0"><tspan
         sodipodi:role="line"
         id="tspan3-1-6-8-3-2"
         style="fill:#000000;fill-opacity:1;stroke-width:0.881592"
         x="38.255035"
         y="119.1735">NORMAL</tspan></text>
    <g
       id="g3-3-3-2-1-8-2"
       transform="matrix(0.28907193,0,0,0.28907193,162.60646,94.871618)">
      <path
         style="fill:#efce4a"
         d="M 46.324,52.5 H 1.565 c -1.03,0 -1.779,-0.978 -1.51,-1.973 L 10.221,22.656 C 10.405,21.974 11.024,21.5 11.731,21.5 H 56.49 c 1.03,0 1.51,0.984 1.51,1.973 L 47.834,51.344 C 47.65,52.026 47.031,52.5 46.324,52.5 Z"
         id="path1-5-6-0-2-7-0" />
      <g
         id="g2-6-0-2-7-9-6">
        <path
           style="fill:#ebba16"
           d="M 50.268,12.5 H 25 l -5,-7 H 1.732 C 0.776,5.5 0,6.275 0,7.232 V 49.96 c 0.069,0.002 0.138,0.006 0.205,0.01 L 10.22,22.656 C 10.404,21.973 11.023,21.5 11.73,21.5 H 52 V 14.232 C 52,13.275 51.224,12.5 50.268,12.5 Z"
           id="path2-2-6-3-0-2-1" />
      </g>
    </g>
    <text
       xml:space="preserve"
       style="font-size:8.46666px;font-family:Carlito;-inkscape-font-specification:Carlito;text-align:start;writing-mode:lr-tb;direction:ltr;text-anchor:start;fill:none;stroke-width:0.881592"
       x="155.59149"
       y="119.17663"
       id="text3-9-2-2-9-0-5"><tspan
         sodipodi:role="line"
         id="tspan3-1-6-8-3-2-5"
         style="fill:#000000;fill-opacity:1;stroke-width:0.881592"
         x="155.59149"
         y="119.17663">NORMAL</tspan></text>
    <path
       style="fill:none;stroke:#000000;stroke-width:0.880999;stroke-dasharray:none;stroke-opacity:1"
       d="M 79.375,74.594172 60.923794,93.045378"
       id="path1" />
    <path
       style="fill:none;stroke:#000000;stroke-width:0.880999;stroke-dasharray:none;stroke-opacity:1"
       d="M 95.937466,74.594172 114.38867,93.045378"
       id="path1-4" />
    <path
       style="fill:none;stroke:#000000;stroke-width:0.880999;stroke-dasharray:none;stroke-opacity:1"
       d="M 193.47124,75.571512 175.02003,94.022718"
       id="path1-6" />
    <path
       style="fill:none;stroke:#000000;stroke-width:0.880999;stroke-dasharray:none;stroke-opacity:1"
       d="M 211.72749,75.57151 230.1787,94.02272"
       id="path1-6-5" />
    <path
       style="fill:none;stroke:#000000;stroke-width:0.880999;stroke-dasharray:none;stroke-opacity:1"
       d="M 96.085524,46.998355 127.75462,28.714192"
       id="path2" />
    <path
       style="fill:none;stroke:#000000;stroke-width:0.880999;stroke-dasharray:none;stroke-opacity:1"
       d="M 194.85875,46.739328 163.18966,28.455173"
       id="path2-1" />
  </g>
</svg>
